# Blender 4.4.3
# www.blender.org
mtllib body.mtl
g Cube.001_Mesh
v 0.250000 0.750000 -0.125000
v 0.250000 1.500000 -0.125000
v -0.250000 0.750000 -0.125000
v -0.250000 1.500000 -0.125000
v 0.250000 0.750000 0.125000
v 0.250000 1.500000 0.125000
v -0.250000 0.750000 0.125000
v -0.250000 1.500000 0.125000
vn -1.0000 -0.0000 -0.0000
vn -0.0000 -0.0000 -1.0000
vn -0.0000 -1.0000 -0.0000
vn -0.0000 1.0000 -0.0000
vn -0.0000 -0.0000 1.0000
vn 1.0000 -0.0000 -0.0000
vt 0.445701 0.687217
vt 0.499521 0.500173
vt 0.445701 0.500173
vt 0.445562 0.687606
vt 0.336799 0.502237
vt 0.445562 0.502237
vt 0.446529 0.749405
vt 0.553102 0.688126
vt 0.553102 0.749405
vt 0.445647 0.687804
vt 0.336949 0.750306
vt 0.336949 0.687804
vt 0.502615 0.687836
vt 0.608291 0.501393
vt 0.608291 0.687836
vt 0.334242 0.686376
vt 0.282682 0.501846
vt 0.334242 0.501846
vt 0.499521 0.687217
vt 0.336799 0.687606
vt 0.446529 0.688126
vt 0.445647 0.750306
vt 0.502615 0.501393
vt 0.282682 0.686376
s 0
usemtl Material.002
f 8/1/1 3/2/1 7/3/1
f 4/4/2 1/5/2 3/6/2
f 7/7/3 1/8/3 5/9/3
f 6/10/4 4/11/4 8/12/4
f 8/13/5 5/14/5 6/15/5
f 2/16/6 5/17/6 1/18/6
f 8/1/1 4/19/1 3/2/1
f 4/4/2 2/20/2 1/5/2
f 7/7/3 3/21/3 1/8/3
f 6/10/4 2/22/4 4/11/4
f 8/13/5 7/23/5 5/14/5
f 2/16/6 6/24/6 5/17/6
g Cube.003_Mesh
v 0.500000 0.750000 -0.125000
v 0.500000 1.500000 -0.125000
v 0.500000 0.750000 0.125000
v 0.500000 1.500000 0.125000
v 0.250000 0.750000 -0.125000
v 0.250000 1.500000 -0.125000
v 0.250000 1.500000 0.125000
v 0.250000 0.750000 0.125000
vn -0.0000 -0.0000 -1.0000
vn -0.0000 1.0000 -0.0000
vn 1.0000 -0.0000 -0.0000
vn -0.0000 -0.0000 1.0000
vn -0.0000 -1.0000 -0.0000
vn -1.0000 -0.0000 -0.0000
vt 0.607964 0.187789
vt 0.556093 0.003191
vt 0.607964 0.003191
vt 0.717460 0.688160
vt 0.665240 0.748213
vt 0.665240 0.688160
vt 0.556098 0.185647
vt 0.501029 -0.000093
vt 0.556099 -0.000093
vt 0.661984 0.186325
vt 0.715698 0.003198
vt 0.715698 0.186325
vt 0.609245 0.190116
vt 0.661460 0.250163
vt 0.609245 0.250163
vt 0.662636 0.187312
vt 0.609383 0.002592
vt 0.662636 0.002592
vt 0.556093 0.187789
vt 0.717460 0.748213
vt 0.501029 0.185647
vt 0.661984 0.003198
vt 0.661460 0.190116
vt 0.609383 0.187312
s 0
usemtl Material.003
f 14/25/7 9/26/7 13/27/7
f 12/28/8 14/29/8 15/30/8
f 10/31/9 11/32/9 9/33/9
f 15/34/10 11/35/10 12/36/10
f 16/37/11 9/38/11 11/39/11
f 15/40/12 13/41/12 16/42/12
f 14/25/7 10/43/7 9/26/7
f 12/28/8 10/44/8 14/29/8
f 10/31/9 12/45/9 11/32/9
f 15/34/10 16/46/10 11/35/10
f 16/37/11 13/47/11 9/38/11
f 15/40/12 14/48/12 13/41/12
g Cube.004_Mesh
v -0.000000 0.000000 -0.125000
v -0.000000 0.750000 -0.125000
v 0.000000 0.000000 0.125000
v 0.000000 0.750000 0.125000
v -0.250000 0.000000 -0.125000
v -0.250000 0.750000 -0.125000
v -0.250000 0.750000 0.125000
v -0.250000 0.000000 0.125000
vn -0.0000 -0.0000 -1.0000
vn -0.0000 1.0000 -0.0000
vn 1.0000 -0.0000 -0.0000
vn -0.0000 -0.0000 1.0000
vn -0.0000 -1.0000 -0.0000
vn -1.0000 -0.0000 -0.0000
vt 0.171385 0.687589
vt 0.119814 0.501964
vt 0.171385 0.501964
vt 0.166403 0.692184
vt 0.124631 0.740221
vt 0.124631 0.692184
vt 0.117563 0.687253
vt 0.066495 0.502332
vt 0.117563 0.502332
vt 0.229335 0.686499
vt 0.281534 0.502968
vt 0.281534 0.686499
vt 0.175027 0.690828
vt 0.222608 0.745545
vt 0.175027 0.745545
vt 0.225724 0.687402
vt 0.174985 0.502183
vt 0.225724 0.502183
vt 0.119814 0.687589
vt 0.166403 0.740221
vt 0.066495 0.687253
vt 0.229335 0.502968
vt 0.222608 0.690828
vt 0.174985 0.687402
s 0
usemtl Material.001
f 22/49/13 17/50/13 21/51/13
f 20/52/14 22/53/14 23/54/14
f 18/55/15 19/56/15 17/57/15
f 23/58/16 19/59/16 20/60/16
f 24/61/17 17/62/17 19/63/17
f 23/64/18 21/65/18 24/66/18
f 22/49/13 18/67/13 17/50/13
f 20/52/14 18/68/14 22/53/14
f 18/55/15 20/69/15 19/56/15
f 23/58/16 24/70/16 19/59/16
f 24/61/17 21/71/17 17/62/17
f 23/64/18 22/72/18 21/65/18
g Cube.006_Mesh
v -0.500000 0.750000 -0.125000
v -0.500000 1.500000 -0.125000
v -0.500000 0.750000 0.125000
v -0.500000 1.500000 0.125000
v -0.250000 0.750000 -0.125000
v -0.250000 1.500000 -0.125000
v -0.250000 1.500000 0.125000
v -0.250000 0.750000 0.125000
vn -0.0000 -0.0000 -1.0000
vn -0.0000 1.0000 -0.0000
vn -1.0000 -0.0000 -0.0000
vn -0.0000 -0.0000 1.0000
vn -0.0000 -1.0000 -0.0000
vn 1.0000 -0.0000 -0.0000
vt 0.607964 0.187789
vt 0.556093 0.003191
vt 0.607964 0.003191
vt 0.717460 0.688160
vt 0.665240 0.748213
vt 0.665240 0.688160
vt 0.556098 0.185647
vt 0.501029 -0.000093
vt 0.556099 -0.000093
vt 0.661984 0.186325
vt 0.715698 0.003198
vt 0.715698 0.186325
vt 0.609245 0.190116
vt 0.661460 0.250163
vt 0.609245 0.250163
vt 0.662636 0.187312
vt 0.609383 0.002592
vt 0.662636 0.002592
vt 0.556093 0.187789
vt 0.717460 0.748213
vt 0.501029 0.185647
vt 0.661984 0.003198
vt 0.661460 0.190116
vt 0.609383 0.187312
s 0
usemtl Material.003
f 30/73/19 29/75/19 25/74/19
f 28/76/20 31/78/20 30/77/20
f 26/79/21 25/81/21 27/80/21
f 31/82/22 28/84/22 27/83/22
f 32/85/23 27/87/23 25/86/23
f 31/88/24 32/90/24 29/89/24
f 30/73/19 25/74/19 26/91/19
f 28/76/20 30/77/20 26/92/20
f 26/79/21 27/80/21 28/93/21
f 31/82/22 27/83/22 32/94/22
f 32/85/23 25/86/23 29/95/23
f 31/88/24 29/89/24 30/96/24
g Cube.005_Mesh
v -0.000000 0.000000 -0.125000
v -0.000000 0.750000 -0.125000
v 0.000000 0.000000 0.125000
v 0.000000 0.750000 0.125000
v 0.250000 0.000000 -0.125000
v 0.250000 0.750000 -0.125000
v 0.250000 0.750000 0.125000
v 0.250000 0.000000 0.125000
vn -0.0000 -0.0000 -1.0000
vn -0.0000 1.0000 -0.0000
vn -1.0000 -0.0000 -0.0000
vn -0.0000 -0.0000 1.0000
vn -0.0000 -1.0000 -0.0000
vn 1.0000 -0.0000 -0.0000
vt 0.171385 0.687589
vt 0.119814 0.501964
vt 0.171385 0.501964
vt 0.166403 0.692184
vt 0.124631 0.740221
vt 0.124631 0.692184
vt 0.117563 0.687253
vt 0.066495 0.502332
vt 0.117563 0.502332
vt 0.229335 0.686499
vt 0.281534 0.502968
vt 0.281534 0.686499
vt 0.175027 0.690828
vt 0.222608 0.745545
vt 0.175027 0.745545
vt 0.225724 0.687402
vt 0.174985 0.502183
vt 0.225724 0.502183
vt 0.119814 0.687589
vt 0.166403 0.740221
vt 0.066495 0.687253
vt 0.229335 0.502968
vt 0.222608 0.690828
vt 0.174985 0.687402
s 0
usemtl Material.001
f 38/97/25 37/99/25 33/98/25
f 36/100/26 39/102/26 38/101/26
f 34/103/27 33/105/27 35/104/27
f 39/106/28 36/108/28 35/107/28
f 40/109/29 35/111/29 33/110/29
f 39/112/30 40/114/30 37/113/30
f 38/97/25 33/98/25 34/115/25
f 36/100/26 38/101/26 34/116/26
f 34/103/27 35/104/27 36/117/27
f 39/106/28 35/107/28 40/118/28
f 40/109/29 33/110/29 37/119/29
f 39/112/30 37/113/30 38/120/30
